<svg id="Layer_1" data-name="Layer 1" xmlns="http://www.w3.org/2000/svg" viewBox="0 0 313.81 205.21"><defs><style>.cls-1{stroke:#000;stroke-miterlimit:10;stroke-width:3px;}</style></defs><text x="-23.04" y="71.62"/><path d="M30,106.49a20.69,20.69,0,0,0,7.35,7.7A19.3,19.3,0,0,0,47.66,117a25.26,25.26,0,0,0,6.56-.79,18.42,18.42,0,0,0,5.36-2.38,20.4,20.4,0,0,0,4.28-3.74v5.33A22.07,22.07,0,0,1,57,119.63a26.53,26.53,0,0,1-9.29,1.4,24.75,24.75,0,0,1-9.75-1.9,23.24,23.24,0,0,1-7.81-5.37,24.87,24.87,0,0,1-5.19-8.21,29.66,29.66,0,0,1,0-20.73,24.87,24.87,0,0,1,5.19-8.21,23.24,23.24,0,0,1,7.81-5.37,24.75,24.75,0,0,1,9.75-1.9A26.53,26.53,0,0,1,57,70.74,22.07,22.07,0,0,1,63.86,75v5.26a19.33,19.33,0,0,0-9.72-6,24.91,24.91,0,0,0-6.48-.79,19.55,19.55,0,0,0-10.29,2.77A20.46,20.46,0,0,0,30,83.81a22.94,22.94,0,0,0-2.73,11.37A22.81,22.81,0,0,0,30,106.49Z" transform="translate(-23.04 71.62)"/><path d="M71.59,133.59H68.11l7.08-16L64,92.78h3.72l10,23.52-1.44-.12,9.78-23.4h3.48Z" transform="translate(-23.04 71.62)"/><path d="M92.89,120.38H89.77V73.59h3.12Zm21.81-6.12a12.46,12.46,0,0,1-4.8,5,13.32,13.32,0,0,1-6.75,1.75,10.18,10.18,0,0,1-6.12-1.9,12.35,12.35,0,0,1-4.11-5.16,19.18,19.18,0,0,1,0-14.73A12.64,12.64,0,0,1,97,94.07a10.31,10.31,0,0,1,6.12-1.89,13.41,13.41,0,0,1,6.75,1.74,12.66,12.66,0,0,1,4.8,5,17.59,17.59,0,0,1,0,15.38Zm-2.79-13.86a10.08,10.08,0,0,0-3.84-3.93,10.7,10.7,0,0,0-5.34-1.34,8.6,8.6,0,0,0-4.8,1.5,11,11,0,0,0-3.66,4.07,12.34,12.34,0,0,0-1.38,5.89,12.2,12.2,0,0,0,1.38,5.87,10.92,10.92,0,0,0,3.66,4.09,8.6,8.6,0,0,0,4.8,1.5,10.71,10.71,0,0,0,5.34-1.36,9.82,9.82,0,0,0,3.84-3.93,14,14,0,0,0,0-12.36Z" transform="translate(-23.04 71.62)"/><path d="M122.83,119.13A12.81,12.81,0,0,1,118.3,114a16.29,16.29,0,0,1-1.65-7.46,15.9,15.9,0,0,1,1.68-7.44A12.62,12.62,0,0,1,123,94a13.07,13.07,0,0,1,6.9-1.83,12.56,12.56,0,0,1,6.63,1.74A12,12,0,0,1,141,98.76a15.31,15.31,0,0,1,1.59,7.1q0,.38,0,.78a5.39,5.39,0,0,1-.09.72H118.63v-2.7h21.48l-1.32,1.87c.08-.2.17-.47.27-.82a3.4,3.4,0,0,0,.15-1,10.28,10.28,0,0,0-1.23-5,9.28,9.28,0,0,0-3.33-3.48,9,9,0,0,0-4.74-1.26,9.8,9.8,0,0,0-5.31,1.42,9.54,9.54,0,0,0-3.51,4,13.46,13.46,0,0,0-1.26,6,14.52,14.52,0,0,0,1.23,6.19,9.19,9.19,0,0,0,8.73,5.52,10.74,10.74,0,0,0,5.55-1.39,12.51,12.51,0,0,0,4.23-4.32l2.52,1.62a15.69,15.69,0,0,1-5.43,5.32,14.8,14.8,0,0,1-7.23,1.71A11.9,11.9,0,0,1,122.83,119.13Z" transform="translate(-23.04 71.62)"/><path d="M148.27,120.38h-3.12V92.78h3.12Zm7.47-24.93a5.19,5.19,0,0,0-1.89-.32,4.66,4.66,0,0,0-3.27,1.13,6.53,6.53,0,0,0-1.77,3.06,15.84,15.84,0,0,0-.54,4.27h-1.44a15.66,15.66,0,0,1,1-5.85,10.21,10.21,0,0,1,2.79-4.06,6,6,0,0,1,3.93-1.5,8.11,8.11,0,0,1,2.49.39,5.89,5.89,0,0,1,2.13,1.29l-1.74,2.58A9.1,9.1,0,0,0,155.74,95.45Z" transform="translate(-23.04 71.62)"/><path d="M164.63,111.6a13.63,13.63,0,0,0,4.35,4.14,11.87,11.87,0,0,0,6.19,1.55,10.52,10.52,0,0,0,7.67-2.7,9.18,9.18,0,0,0,2.77-6.88,9.69,9.69,0,0,0-1.65-5.9,12.72,12.72,0,0,0-4.29-3.64,46.48,46.48,0,0,0-5.5-2.48c-1.44-.53-2.94-1.16-4.5-1.91a21.86,21.86,0,0,1-4.36-2.73A13.12,13.12,0,0,1,162,87.12a11.37,11.37,0,0,1-1.26-5.54,11.52,11.52,0,0,1,6.56-10.7,15.4,15.4,0,0,1,7-1.54,14.91,14.91,0,0,1,6.95,1.51,16,16,0,0,1,4.86,3.81,18.29,18.29,0,0,1,2.95,4.76l-3.46,1.94a15.59,15.59,0,0,0-2.26-3.81,12.62,12.62,0,0,0-3.71-3.14,11.17,11.17,0,0,0-5.55-1.26,9.41,9.41,0,0,0-6.76,2.27A7.48,7.48,0,0,0,165,81.07a8.44,8.44,0,0,0,1.37,4.83,12.62,12.62,0,0,0,4.1,3.63,39.56,39.56,0,0,0,6.77,3.06,42.16,42.16,0,0,1,4.32,2,17.77,17.77,0,0,1,4.07,2.88,13.82,13.82,0,0,1,3,4.14,13.26,13.26,0,0,1,1.15,5.72,13.62,13.62,0,0,1-1.12,5.62,13,13,0,0,1-3.09,4.35,13.54,13.54,0,0,1-4.65,2.81,16.58,16.58,0,0,1-5.76,1,15.87,15.87,0,0,1-7.7-1.8,16.82,16.82,0,0,1-5.55-4.82,24.61,24.61,0,0,1-3.45-6.55l3.24-2A28,28,0,0,0,164.63,111.6Z" transform="translate(-23.04 71.62)"/><path d="M208.44,97.11c-1-1.33-2.68-2-4.92-2a7.88,7.88,0,0,0-4.17,1.11,8,8,0,0,0-2.88,3,8.92,8.92,0,0,0-1.05,4.33v16.79H192.3V92.78h3.12v5.77a10.08,10.08,0,0,1,3.45-4.69,9,9,0,0,1,5.37-1.68,8.14,8.14,0,0,1,6.6,2.73,11.14,11.14,0,0,1,2.28,7.35v18.12H210V102.63A8.69,8.69,0,0,0,208.44,97.11Z" transform="translate(-23.04 71.62)"/><path d="M218.14,94.9a16.59,16.59,0,0,1,6.16-6.12,18.2,18.2,0,0,1,17.46,0,16.56,16.56,0,0,1,6.12,6.12,18.62,18.62,0,0,1,0,17.82,16.49,16.49,0,0,1-6.12,6.15,18.13,18.13,0,0,1-17.46,0,16.53,16.53,0,0,1-6.16-6.15,18.69,18.69,0,0,1,0-17.82Zm5,15a11.15,11.15,0,0,0,4,4.22,11.67,11.67,0,0,0,11.59,0,11.12,11.12,0,0,0,4-4.22,12.43,12.43,0,0,0,1.48-6.12,12.66,12.66,0,0,0-1.48-6.15,10.75,10.75,0,0,0-4-4.21,11.81,11.81,0,0,0-11.59,0,10.77,10.77,0,0,0-4,4.21,12.65,12.65,0,0,0-1.47,6.15A12.43,12.43,0,0,0,223.18,109.94Z" transform="translate(-23.04 71.62)"/><path d="M255.66,94.9a16.49,16.49,0,0,1,6.15-6.12,18.2,18.2,0,0,1,17.46,0,16.56,16.56,0,0,1,6.12,6.12,18.62,18.62,0,0,1,0,17.82,16.49,16.49,0,0,1-6.12,6.15,18.13,18.13,0,0,1-17.46,0,16.43,16.43,0,0,1-6.15-6.15,18.62,18.62,0,0,1,0-17.82Zm5,15a11.19,11.19,0,0,0,19.65,0,12.43,12.43,0,0,0,1.48-6.12,12.66,12.66,0,0,0-1.48-6.15,10.75,10.75,0,0,0-4-4.21,11.81,11.81,0,0,0-11.59,0,10.68,10.68,0,0,0-4,4.21,12.55,12.55,0,0,0-1.48,6.15A12.32,12.32,0,0,0,260.7,109.94Z" transform="translate(-23.04 71.62)"/><path d="M292.82,133.59V92.78h3.12v40.81Zm24.93-19.33a12.46,12.46,0,0,1-4.8,5A13.32,13.32,0,0,1,306.2,121a10.18,10.18,0,0,1-6.12-1.9,12.35,12.35,0,0,1-4.11-5.16,19.18,19.18,0,0,1,0-14.73,12.64,12.64,0,0,1,4.11-5.13,10.31,10.31,0,0,1,6.12-1.89A13.41,13.41,0,0,1,313,93.92a12.66,12.66,0,0,1,4.8,5,17.59,17.59,0,0,1,0,15.38ZM315,100.4a10.08,10.08,0,0,0-3.84-3.93,10.7,10.7,0,0,0-5.34-1.34,8.6,8.6,0,0,0-4.8,1.5,11,11,0,0,0-3.66,4.07,12.34,12.34,0,0,0-1.38,5.89,12.2,12.2,0,0,0,1.38,5.87,10.92,10.92,0,0,0,3.66,4.09,8.6,8.6,0,0,0,4.8,1.5,10.71,10.71,0,0,0,5.34-1.36,9.82,9.82,0,0,0,3.84-3.93,14,14,0,0,0,0-12.36Z" transform="translate(-23.04 71.62)"/><text x="-23.04" y="71.62"/><path d="M248.06,102.33c.2-.27-.26.31-.06.08s.2-.24.31-.35a5,5,0,0,1,.4-.4l.26-.22c.26-.24-.26.17,0,0s.46-.31.71-.44.23-.12.34-.18.16-.07,0,0l.2-.07a6.63,6.63,0,0,1,.9-.25c.18,0,.2,0,.05,0l.24,0a5.33,5.33,0,0,1,.56,0l.47,0c.19,0,.2,0,0,0l.28.06a5.61,5.61,0,0,1,.8.23l.25.09c-.16-.07-.16-.06,0,0l.33.17a7.92,7.92,0,0,1,.69.42c.07.06.33.28,0,0l.22.19a4,4,0,0,1,.42.4c.16.15.65.77.22.2a1.54,1.54,0,0,0,2,.54,1.51,1.51,0,0,0,.54-2,8.2,8.2,0,0,0-6.34-3.3,8.09,8.09,0,0,0-6.55,3.43,1.51,1.51,0,0,0,.54,2.05,1.53,1.53,0,0,0,2.05-.54Z" transform="translate(-23.04 71.62)"/><path d="M248.06,106c.2-.27-.26.31-.06.08s.2-.24.31-.35a4.93,4.93,0,0,1,.4-.39l.26-.23c.26-.24-.26.17,0,0a7.68,7.68,0,0,1,.71-.45l.34-.18c.16-.07.16-.07,0,0l.2-.07a6.63,6.63,0,0,1,.9-.25c.18,0,.2,0,.05,0l.24,0,.56,0,.47,0c.19,0,.2,0,0,0l.28,0a5.61,5.61,0,0,1,.8.23l.25.09c-.16-.06-.16-.06,0,0l.33.17a6.12,6.12,0,0,1,.69.43c.07.05.33.27,0,0l.22.19a5.33,5.33,0,0,1,.42.4c.16.16.65.78.22.21a1.54,1.54,0,0,0,2,.53,1.51,1.51,0,0,0,.54-2,8.2,8.2,0,0,0-6.34-3.3,8.09,8.09,0,0,0-6.55,3.43,1.51,1.51,0,0,0,.54,2,1.53,1.53,0,0,0,2.05-.54Z" transform="translate(-23.04 71.62)"/><path class="cls-1" d="M235.76,68.35c-.86,2.2-5.48.9-10.81,2.51-10.49,3.16-16.33,16-15,17.23.87.82,4.1-4.36,11.59-6.17,3.33-.79,4.62-.21,21.28,2.39,7.2,1.12,9.71,1.46,13.4,1.06,5.08-.54,4.73-1.64,10.39-2.68a56.35,56.35,0,0,1,22,.64c3.16.83,4.91,1.67,5.36,1,.95-1.37-5.13-7.51-10.38-11.49a55,55,0,0,0-11.49-6.68c5-5.83,5.46-8.56,4.68-10-1.05-1.85-4.17-1.23-4.91-3-1.18-2.89,5.67-7.53,4.94-8.68s-8.65,4.67-19.95,5.16c-4,.17-6.53.28-9.78-.81-4.41-1.48-6.27-3.88-9.66-3.23a7.85,7.85,0,0,0-4.43,3,12.09,12.09,0,0,0-2.57,8.63C231,63.58,236.73,65.87,235.76,68.35Z" transform="translate(-23.04 71.62)"/><path d="M233.06,98.85a5.17,5.17,0,0,0-2.34.59,2.66,2.66,0,0,1,.9-.17,2.57,2.57,0,1,1-1.88.84,5.07,5.07,0,1,0,3.32-1.26Z" transform="translate(-23.04 71.62)"/><path d="M270.38,98.85a5,5,0,0,0-2.28.56,2.54,2.54,0,1,1,.79,5,2.54,2.54,0,0,1-2.54-2.54,2.51,2.51,0,0,1,.58-1.6,5.07,5.07,0,1,0,3.45-1.37Z" transform="translate(-23.04 71.62)"/></svg>